<?xml version="1.0" standalone="no" ?>
<!DOCTYPE svg PUBLIC "-//W3C//DTD SVG 1.1//EN" "http://www.w3.org/Graphics/SVG/1.1/DTD/svg11.dtd">
<svg width="1035px" height="132px" xmlns="http://www.w3.org/2000/svg" version="1.1" viewBox="0 0 1035 132" >
	<style type="text/css" > <![CDATA[
		@import url("https://www.ncbi.nlm.nih.gov/projects/sviewer/css/svg_fonts.css");
	]]>
	</style>
	<desc >Generated by NCBI Genome Workbench http://www.ncbi.nlm.nih.gov/tools/gbench/</desc>
	<defs >
		<clipPath id="clipping-rect1" >
			<rect x="0" y="0" width="1035" height="18" />
		</clipPath>
		<linearGradient id="gradient1" gradientTransform="rotate(90)" >
			<stop offset="0%" stop-color="#6c6c6c" />
			<stop offset="50%" stop-color="#b5b5b5" />
			<stop offset="100%" stop-color="#6c6c6c" />
		</linearGradient>
		<linearGradient id="gradient2" gradientTransform="rotate(90)" >
			<stop offset="0%" stop-color="#166e32" />
			<stop offset="50%" stop-color="#8ab698" />
			<stop offset="100%" stop-color="#166e32" />
		</linearGradient>
		<clipPath id="clipping-rect2" >
			<rect x="0" y="18" width="1035" height="114" />
		</clipPath>
		<linearGradient id="gradient3" gradientTransform="rotate(90)" >
			<stop offset="0%" stop-color="#e6e6e6" stop-opacity="0.71" />
			<stop offset="100%" stop-color="#ffffff" stop-opacity="0.00" />
		</linearGradient>
	</defs>
	<g >
		<polygon fill="#ffffff" shape-rendering="crispEdges" points="1035.00,17.00 1035.00,-1.00 0.00,-1.00 0.00,17.00 " />
		<line x1="0.00" y1="14.88" x2="1035.00" y2="14.88" stroke="#7f7f7f" stroke-width="1.00" clip-path="url('#clipping-rect1')" />
		<line x1="9.32" y1="14.88" x2="9.32" y2="12.76" stroke="#7f7f7f" stroke-width="1.00" clip-path="url('#clipping-rect1')" />
		<line x1="18.64" y1="14.88" x2="18.64" y2="11.71" stroke="#7f7f7f" stroke-width="1.00" clip-path="url('#clipping-rect1')" />
		<line x1="27.96" y1="14.88" x2="27.96" y2="12.76" stroke="#7f7f7f" stroke-width="1.00" clip-path="url('#clipping-rect1')" />
		<line x1="37.27" y1="14.88" x2="37.27" y2="11.71" stroke="#7f7f7f" stroke-width="1.00" clip-path="url('#clipping-rect1')" />
		<line x1="46.59" y1="14.88" x2="46.59" y2="12.76" stroke="#7f7f7f" stroke-width="1.00" clip-path="url('#clipping-rect1')" />
		<line x1="55.91" y1="14.88" x2="55.91" y2="11.71" stroke="#7f7f7f" stroke-width="1.00" clip-path="url('#clipping-rect1')" />
		<line x1="65.23" y1="14.88" x2="65.23" y2="12.76" stroke="#7f7f7f" stroke-width="1.00" clip-path="url('#clipping-rect1')" />
		<line x1="74.55" y1="14.88" x2="74.55" y2="11.71" stroke="#7f7f7f" stroke-width="1.00" clip-path="url('#clipping-rect1')" />
		<line x1="83.87" y1="14.88" x2="83.87" y2="12.76" stroke="#7f7f7f" stroke-width="1.00" clip-path="url('#clipping-rect1')" />
		<line x1="93.19" y1="14.88" x2="93.19" y2="11.71" stroke="#7f7f7f" stroke-width="1.00" clip-path="url('#clipping-rect1')" />
		<line x1="102.50" y1="14.88" x2="102.50" y2="12.76" stroke="#7f7f7f" stroke-width="1.00" clip-path="url('#clipping-rect1')" />
		<line x1="111.82" y1="14.88" x2="111.82" y2="11.71" stroke="#7f7f7f" stroke-width="1.00" clip-path="url('#clipping-rect1')" />
		<line x1="121.14" y1="14.88" x2="121.14" y2="12.76" stroke="#7f7f7f" stroke-width="1.00" clip-path="url('#clipping-rect1')" />
		<line x1="130.46" y1="14.88" x2="130.46" y2="11.71" stroke="#7f7f7f" stroke-width="1.00" clip-path="url('#clipping-rect1')" />
		<line x1="139.78" y1="14.88" x2="139.78" y2="12.76" stroke="#7f7f7f" stroke-width="1.00" clip-path="url('#clipping-rect1')" />
		<line x1="149.10" y1="14.88" x2="149.10" y2="11.71" stroke="#7f7f7f" stroke-width="1.00" clip-path="url('#clipping-rect1')" />
		<line x1="158.41" y1="14.88" x2="158.41" y2="12.76" stroke="#7f7f7f" stroke-width="1.00" clip-path="url('#clipping-rect1')" />
		<line x1="167.73" y1="14.88" x2="167.73" y2="11.71" stroke="#7f7f7f" stroke-width="1.00" clip-path="url('#clipping-rect1')" />
		<line x1="177.05" y1="14.88" x2="177.05" y2="12.76" stroke="#7f7f7f" stroke-width="1.00" clip-path="url('#clipping-rect1')" />
		<line x1="186.37" y1="14.88" x2="186.37" y2="11.71" stroke="#7f7f7f" stroke-width="1.00" clip-path="url('#clipping-rect1')" />
		<line x1="195.69" y1="14.88" x2="195.69" y2="12.76" stroke="#7f7f7f" stroke-width="1.00" clip-path="url('#clipping-rect1')" />
		<line x1="205.01" y1="14.88" x2="205.01" y2="11.71" stroke="#7f7f7f" stroke-width="1.00" clip-path="url('#clipping-rect1')" />
		<line x1="214.33" y1="14.88" x2="214.33" y2="12.76" stroke="#7f7f7f" stroke-width="1.00" clip-path="url('#clipping-rect1')" />
		<line x1="223.64" y1="14.88" x2="223.64" y2="11.71" stroke="#7f7f7f" stroke-width="1.00" clip-path="url('#clipping-rect1')" />
		<line x1="232.96" y1="14.88" x2="232.96" y2="12.76" stroke="#7f7f7f" stroke-width="1.00" clip-path="url('#clipping-rect1')" />
		<line x1="242.28" y1="14.88" x2="242.28" y2="11.71" stroke="#7f7f7f" stroke-width="1.00" clip-path="url('#clipping-rect1')" />
		<line x1="251.60" y1="14.88" x2="251.60" y2="12.76" stroke="#7f7f7f" stroke-width="1.00" clip-path="url('#clipping-rect1')" />
		<line x1="260.92" y1="14.88" x2="260.92" y2="11.71" stroke="#7f7f7f" stroke-width="1.00" clip-path="url('#clipping-rect1')" />
		<line x1="270.24" y1="14.88" x2="270.24" y2="12.76" stroke="#7f7f7f" stroke-width="1.00" clip-path="url('#clipping-rect1')" />
		<line x1="279.56" y1="14.88" x2="279.56" y2="11.71" stroke="#7f7f7f" stroke-width="1.00" clip-path="url('#clipping-rect1')" />
		<line x1="288.87" y1="14.88" x2="288.87" y2="12.76" stroke="#7f7f7f" stroke-width="1.00" clip-path="url('#clipping-rect1')" />
		<line x1="298.19" y1="14.88" x2="298.19" y2="11.71" stroke="#7f7f7f" stroke-width="1.00" clip-path="url('#clipping-rect1')" />
		<line x1="307.51" y1="14.88" x2="307.51" y2="12.76" stroke="#7f7f7f" stroke-width="1.00" clip-path="url('#clipping-rect1')" />
		<line x1="316.83" y1="14.88" x2="316.83" y2="11.71" stroke="#7f7f7f" stroke-width="1.00" clip-path="url('#clipping-rect1')" />
		<line x1="326.15" y1="14.88" x2="326.15" y2="12.76" stroke="#7f7f7f" stroke-width="1.00" clip-path="url('#clipping-rect1')" />
		<line x1="335.47" y1="14.88" x2="335.47" y2="11.71" stroke="#7f7f7f" stroke-width="1.00" clip-path="url('#clipping-rect1')" />
		<line x1="344.79" y1="14.88" x2="344.79" y2="12.76" stroke="#7f7f7f" stroke-width="1.00" clip-path="url('#clipping-rect1')" />
		<line x1="354.10" y1="14.88" x2="354.10" y2="11.71" stroke="#7f7f7f" stroke-width="1.00" clip-path="url('#clipping-rect1')" />
		<line x1="363.42" y1="14.88" x2="363.42" y2="12.76" stroke="#7f7f7f" stroke-width="1.00" clip-path="url('#clipping-rect1')" />
		<line x1="372.74" y1="14.88" x2="372.74" y2="11.71" stroke="#7f7f7f" stroke-width="1.00" clip-path="url('#clipping-rect1')" />
		<line x1="382.06" y1="14.88" x2="382.06" y2="12.76" stroke="#7f7f7f" stroke-width="1.00" clip-path="url('#clipping-rect1')" />
		<line x1="391.38" y1="14.88" x2="391.38" y2="11.71" stroke="#7f7f7f" stroke-width="1.00" clip-path="url('#clipping-rect1')" />
		<line x1="400.70" y1="14.88" x2="400.70" y2="12.76" stroke="#7f7f7f" stroke-width="1.00" clip-path="url('#clipping-rect1')" />
		<line x1="410.01" y1="14.88" x2="410.01" y2="11.71" stroke="#7f7f7f" stroke-width="1.00" clip-path="url('#clipping-rect1')" />
		<line x1="419.33" y1="14.88" x2="419.33" y2="12.76" stroke="#7f7f7f" stroke-width="1.00" clip-path="url('#clipping-rect1')" />
		<line x1="428.65" y1="14.88" x2="428.65" y2="11.71" stroke="#7f7f7f" stroke-width="1.00" clip-path="url('#clipping-rect1')" />
		<line x1="437.97" y1="14.88" x2="437.97" y2="12.76" stroke="#7f7f7f" stroke-width="1.00" clip-path="url('#clipping-rect1')" />
		<line x1="447.29" y1="14.88" x2="447.29" y2="11.71" stroke="#7f7f7f" stroke-width="1.00" clip-path="url('#clipping-rect1')" />
		<line x1="456.61" y1="14.88" x2="456.61" y2="12.76" stroke="#7f7f7f" stroke-width="1.00" clip-path="url('#clipping-rect1')" />
		<line x1="465.93" y1="14.88" x2="465.93" y2="11.71" stroke="#7f7f7f" stroke-width="1.00" clip-path="url('#clipping-rect1')" />
		<line x1="475.24" y1="14.88" x2="475.24" y2="12.76" stroke="#7f7f7f" stroke-width="1.00" clip-path="url('#clipping-rect1')" />
		<line x1="484.56" y1="14.88" x2="484.56" y2="11.71" stroke="#7f7f7f" stroke-width="1.00" clip-path="url('#clipping-rect1')" />
		<line x1="493.88" y1="14.88" x2="493.88" y2="12.76" stroke="#7f7f7f" stroke-width="1.00" clip-path="url('#clipping-rect1')" />
		<line x1="503.20" y1="14.88" x2="503.20" y2="11.71" stroke="#7f7f7f" stroke-width="1.00" clip-path="url('#clipping-rect1')" />
		<line x1="512.52" y1="14.88" x2="512.52" y2="12.76" stroke="#7f7f7f" stroke-width="1.00" clip-path="url('#clipping-rect1')" />
		<line x1="521.84" y1="14.88" x2="521.84" y2="11.71" stroke="#7f7f7f" stroke-width="1.00" clip-path="url('#clipping-rect1')" />
		<line x1="531.16" y1="14.88" x2="531.16" y2="12.76" stroke="#7f7f7f" stroke-width="1.00" clip-path="url('#clipping-rect1')" />
		<line x1="540.47" y1="14.88" x2="540.47" y2="11.71" stroke="#7f7f7f" stroke-width="1.00" clip-path="url('#clipping-rect1')" />
		<line x1="549.79" y1="14.88" x2="549.79" y2="12.76" stroke="#7f7f7f" stroke-width="1.00" clip-path="url('#clipping-rect1')" />
		<line x1="559.11" y1="14.88" x2="559.11" y2="11.71" stroke="#7f7f7f" stroke-width="1.00" clip-path="url('#clipping-rect1')" />
		<line x1="568.43" y1="14.88" x2="568.43" y2="12.76" stroke="#7f7f7f" stroke-width="1.00" clip-path="url('#clipping-rect1')" />
		<line x1="577.75" y1="14.88" x2="577.75" y2="11.71" stroke="#7f7f7f" stroke-width="1.00" clip-path="url('#clipping-rect1')" />
		<line x1="587.07" y1="14.88" x2="587.07" y2="12.76" stroke="#7f7f7f" stroke-width="1.00" clip-path="url('#clipping-rect1')" />
		<line x1="596.39" y1="14.88" x2="596.39" y2="11.71" stroke="#7f7f7f" stroke-width="1.00" clip-path="url('#clipping-rect1')" />
		<line x1="605.70" y1="14.88" x2="605.70" y2="12.76" stroke="#7f7f7f" stroke-width="1.00" clip-path="url('#clipping-rect1')" />
		<line x1="615.02" y1="14.88" x2="615.02" y2="11.71" stroke="#7f7f7f" stroke-width="1.00" clip-path="url('#clipping-rect1')" />
		<line x1="624.34" y1="14.88" x2="624.34" y2="12.76" stroke="#7f7f7f" stroke-width="1.00" clip-path="url('#clipping-rect1')" />
		<line x1="633.66" y1="14.88" x2="633.66" y2="11.71" stroke="#7f7f7f" stroke-width="1.00" clip-path="url('#clipping-rect1')" />
		<line x1="642.98" y1="14.88" x2="642.98" y2="12.76" stroke="#7f7f7f" stroke-width="1.00" clip-path="url('#clipping-rect1')" />
		<line x1="652.30" y1="14.88" x2="652.30" y2="11.71" stroke="#7f7f7f" stroke-width="1.00" clip-path="url('#clipping-rect1')" />
		<line x1="661.61" y1="14.88" x2="661.61" y2="12.76" stroke="#7f7f7f" stroke-width="1.00" clip-path="url('#clipping-rect1')" />
		<line x1="670.93" y1="14.88" x2="670.93" y2="11.71" stroke="#7f7f7f" stroke-width="1.00" clip-path="url('#clipping-rect1')" />
		<line x1="680.25" y1="14.88" x2="680.25" y2="12.76" stroke="#7f7f7f" stroke-width="1.00" clip-path="url('#clipping-rect1')" />
		<line x1="689.57" y1="14.88" x2="689.57" y2="11.71" stroke="#7f7f7f" stroke-width="1.00" clip-path="url('#clipping-rect1')" />
		<line x1="698.89" y1="14.88" x2="698.89" y2="12.76" stroke="#7f7f7f" stroke-width="1.00" clip-path="url('#clipping-rect1')" />
		<line x1="708.21" y1="14.88" x2="708.21" y2="11.71" stroke="#7f7f7f" stroke-width="1.00" clip-path="url('#clipping-rect1')" />
		<line x1="717.53" y1="14.88" x2="717.53" y2="12.76" stroke="#7f7f7f" stroke-width="1.00" clip-path="url('#clipping-rect1')" />
		<line x1="726.84" y1="14.88" x2="726.84" y2="11.71" stroke="#7f7f7f" stroke-width="1.00" clip-path="url('#clipping-rect1')" />
		<line x1="736.16" y1="14.88" x2="736.16" y2="12.76" stroke="#7f7f7f" stroke-width="1.00" clip-path="url('#clipping-rect1')" />
		<line x1="745.48" y1="14.88" x2="745.48" y2="11.71" stroke="#7f7f7f" stroke-width="1.00" clip-path="url('#clipping-rect1')" />
		<line x1="754.80" y1="14.88" x2="754.80" y2="12.76" stroke="#7f7f7f" stroke-width="1.00" clip-path="url('#clipping-rect1')" />
		<line x1="764.12" y1="14.88" x2="764.12" y2="11.71" stroke="#7f7f7f" stroke-width="1.00" clip-path="url('#clipping-rect1')" />
		<line x1="773.44" y1="14.88" x2="773.44" y2="12.76" stroke="#7f7f7f" stroke-width="1.00" clip-path="url('#clipping-rect1')" />
		<line x1="782.76" y1="14.88" x2="782.76" y2="11.71" stroke="#7f7f7f" stroke-width="1.00" clip-path="url('#clipping-rect1')" />
		<line x1="792.07" y1="14.88" x2="792.07" y2="12.76" stroke="#7f7f7f" stroke-width="1.00" clip-path="url('#clipping-rect1')" />
		<line x1="801.39" y1="14.88" x2="801.39" y2="11.71" stroke="#7f7f7f" stroke-width="1.00" clip-path="url('#clipping-rect1')" />
		<line x1="810.71" y1="14.88" x2="810.71" y2="12.76" stroke="#7f7f7f" stroke-width="1.00" clip-path="url('#clipping-rect1')" />
		<line x1="820.03" y1="14.88" x2="820.03" y2="11.71" stroke="#7f7f7f" stroke-width="1.00" clip-path="url('#clipping-rect1')" />
		<line x1="829.35" y1="14.88" x2="829.35" y2="12.76" stroke="#7f7f7f" stroke-width="1.00" clip-path="url('#clipping-rect1')" />
		<line x1="838.67" y1="14.88" x2="838.67" y2="11.71" stroke="#7f7f7f" stroke-width="1.00" clip-path="url('#clipping-rect1')" />
		<line x1="847.99" y1="14.88" x2="847.99" y2="12.76" stroke="#7f7f7f" stroke-width="1.00" clip-path="url('#clipping-rect1')" />
		<line x1="857.30" y1="14.88" x2="857.30" y2="11.71" stroke="#7f7f7f" stroke-width="1.00" clip-path="url('#clipping-rect1')" />
		<line x1="866.62" y1="14.88" x2="866.62" y2="12.76" stroke="#7f7f7f" stroke-width="1.00" clip-path="url('#clipping-rect1')" />
		<line x1="875.94" y1="14.88" x2="875.94" y2="11.71" stroke="#7f7f7f" stroke-width="1.00" clip-path="url('#clipping-rect1')" />
		<line x1="885.26" y1="14.88" x2="885.26" y2="12.76" stroke="#7f7f7f" stroke-width="1.00" clip-path="url('#clipping-rect1')" />
		<line x1="894.58" y1="14.88" x2="894.58" y2="11.71" stroke="#7f7f7f" stroke-width="1.00" clip-path="url('#clipping-rect1')" />
		<line x1="903.90" y1="14.88" x2="903.90" y2="12.76" stroke="#7f7f7f" stroke-width="1.00" clip-path="url('#clipping-rect1')" />
		<line x1="913.21" y1="14.88" x2="913.21" y2="11.71" stroke="#7f7f7f" stroke-width="1.00" clip-path="url('#clipping-rect1')" />
		<line x1="922.53" y1="14.88" x2="922.53" y2="12.76" stroke="#7f7f7f" stroke-width="1.00" clip-path="url('#clipping-rect1')" />
		<line x1="931.85" y1="14.88" x2="931.85" y2="11.71" stroke="#7f7f7f" stroke-width="1.00" clip-path="url('#clipping-rect1')" />
		<line x1="941.17" y1="14.88" x2="941.17" y2="12.76" stroke="#7f7f7f" stroke-width="1.00" clip-path="url('#clipping-rect1')" />
		<line x1="950.49" y1="14.88" x2="950.49" y2="11.71" stroke="#7f7f7f" stroke-width="1.00" clip-path="url('#clipping-rect1')" />
		<line x1="959.81" y1="14.88" x2="959.81" y2="12.76" stroke="#7f7f7f" stroke-width="1.00" clip-path="url('#clipping-rect1')" />
		<line x1="969.13" y1="14.88" x2="969.13" y2="11.71" stroke="#7f7f7f" stroke-width="1.00" clip-path="url('#clipping-rect1')" />
		<line x1="978.44" y1="14.88" x2="978.44" y2="12.76" stroke="#7f7f7f" stroke-width="1.00" clip-path="url('#clipping-rect1')" />
		<line x1="987.76" y1="14.88" x2="987.76" y2="11.71" stroke="#7f7f7f" stroke-width="1.00" clip-path="url('#clipping-rect1')" />
		<line x1="997.08" y1="14.88" x2="997.08" y2="12.76" stroke="#7f7f7f" stroke-width="1.00" clip-path="url('#clipping-rect1')" />
		<line x1="1006.40" y1="14.88" x2="1006.40" y2="11.71" stroke="#7f7f7f" stroke-width="1.00" clip-path="url('#clipping-rect1')" />
		<line x1="1015.72" y1="14.88" x2="1015.72" y2="12.76" stroke="#7f7f7f" stroke-width="1.00" clip-path="url('#clipping-rect1')" />
		<line x1="1025.04" y1="14.88" x2="1025.04" y2="11.71" stroke="#7f7f7f" stroke-width="1.00" clip-path="url('#clipping-rect1')" />
		<line x1="1034.36" y1="14.88" x2="1034.36" y2="12.76" stroke="#7f7f7f" stroke-width="1.00" clip-path="url('#clipping-rect1')" />
		<text x="0.00" y="9.59" font-family="Helvetica" font-size="10" fill="#333333" clip-path="url('#clipping-rect1')" >1</text>
		<line x1="0.00" y1="17.00" x2="0.00" y2="1.12" stroke="#7f7f7f" stroke-width="1.00" clip-path="url('#clipping-rect1')" />
		<text x="991.22" y="9.59" font-family="Helvetica" font-size="10" fill="#333333" clip-path="url('#clipping-rect1')" >5,553,457</text>
		<line x1="1035.00" y1="17.00" x2="1035.00" y2="1.12" stroke="#7f7f7f" stroke-width="1.00" clip-path="url('#clipping-rect1')" />
		<text x="933.85" y="9.59" font-family="Helvetica" font-size="10" fill="#333333" clip-path="url('#clipping-rect1')" >5 M</text>
		<line x1="931.85" y1="17.00" x2="931.85" y2="1.12" stroke="#7f7f7f" stroke-width="1.00" clip-path="url('#clipping-rect1')" />
		<text x="840.67" y="9.59" font-family="Helvetica" font-size="10" fill="#333333" clip-path="url('#clipping-rect1')" >4,500 K</text>
		<line x1="838.67" y1="17.00" x2="838.67" y2="1.12" stroke="#7f7f7f" stroke-width="1.00" clip-path="url('#clipping-rect1')" />
		<text x="747.48" y="9.59" font-family="Helvetica" font-size="10" fill="#333333" clip-path="url('#clipping-rect1')" >4 M</text>
		<line x1="745.48" y1="17.00" x2="745.48" y2="1.12" stroke="#7f7f7f" stroke-width="1.00" clip-path="url('#clipping-rect1')" />
		<text x="654.30" y="9.59" font-family="Helvetica" font-size="10" fill="#333333" clip-path="url('#clipping-rect1')" >3,500 K</text>
		<line x1="652.30" y1="17.00" x2="652.30" y2="1.12" stroke="#7f7f7f" stroke-width="1.00" clip-path="url('#clipping-rect1')" />
		<text x="561.11" y="9.59" font-family="Helvetica" font-size="10" fill="#333333" clip-path="url('#clipping-rect1')" >3 M</text>
		<line x1="559.11" y1="17.00" x2="559.11" y2="1.12" stroke="#7f7f7f" stroke-width="1.00" clip-path="url('#clipping-rect1')" />
		<text x="467.93" y="9.59" font-family="Helvetica" font-size="10" fill="#333333" clip-path="url('#clipping-rect1')" >2,500 K</text>
		<line x1="465.93" y1="17.00" x2="465.93" y2="1.12" stroke="#7f7f7f" stroke-width="1.00" clip-path="url('#clipping-rect1')" />
		<text x="374.74" y="9.59" font-family="Helvetica" font-size="10" fill="#333333" clip-path="url('#clipping-rect1')" >2 M</text>
		<line x1="372.74" y1="17.00" x2="372.74" y2="1.12" stroke="#7f7f7f" stroke-width="1.00" clip-path="url('#clipping-rect1')" />
		<text x="281.56" y="9.59" font-family="Helvetica" font-size="10" fill="#333333" clip-path="url('#clipping-rect1')" >1,500 K</text>
		<line x1="279.56" y1="17.00" x2="279.56" y2="1.12" stroke="#7f7f7f" stroke-width="1.00" clip-path="url('#clipping-rect1')" />
		<text x="188.37" y="9.59" font-family="Helvetica" font-size="10" fill="#333333" clip-path="url('#clipping-rect1')" >1 M</text>
		<line x1="186.37" y1="17.00" x2="186.37" y2="1.12" stroke="#7f7f7f" stroke-width="1.00" clip-path="url('#clipping-rect1')" />
		<text x="95.19" y="9.59" font-family="Helvetica" font-size="10" fill="#333333" clip-path="url('#clipping-rect1')" >500 K</text>
		<line x1="93.19" y1="17.00" x2="93.19" y2="1.12" stroke="#7f7f7f" stroke-width="1.00" clip-path="url('#clipping-rect1')" />
		<line x1="0.00" y1="131.00" x2="0.00" y2="17.00" stroke="#ebebeb" stroke-width="1.00" />
		<line x1="93.09" y1="131.00" x2="93.09" y2="17.00" stroke="#ebebeb" stroke-width="1.00" />
		<line x1="186.18" y1="131.00" x2="186.18" y2="17.00" stroke="#ebebeb" stroke-width="1.00" />
		<line x1="279.27" y1="131.00" x2="279.27" y2="17.00" stroke="#ebebeb" stroke-width="1.00" />
		<line x1="372.36" y1="131.00" x2="372.36" y2="17.00" stroke="#ebebeb" stroke-width="1.00" />
		<line x1="465.45" y1="131.00" x2="465.45" y2="17.00" stroke="#ebebeb" stroke-width="1.00" />
		<line x1="559.54" y1="131.00" x2="559.54" y2="17.00" stroke="#ebebeb" stroke-width="1.00" />
		<line x1="652.63" y1="131.00" x2="652.63" y2="17.00" stroke="#ebebeb" stroke-width="1.00" />
		<line x1="745.72" y1="131.00" x2="745.72" y2="17.00" stroke="#ebebeb" stroke-width="1.00" />
		<line x1="838.81" y1="131.00" x2="838.81" y2="17.00" stroke="#ebebeb" stroke-width="1.00" />
		<line x1="931.90" y1="131.00" x2="931.90" y2="17.00" stroke="#ebebeb" stroke-width="1.00" />
		<line x1="1025.99" y1="131.00" x2="1025.99" y2="17.00" stroke="#ebebeb" stroke-width="1.00" />
		<polygon fill="url('#gradient1')" shape-rendering="crispEdges" points="1035.00,23.50 1035.00,19.00 0.00,19.00 0.00,23.50 0.00,28.00 1035.00,28.00 " />
		<line x1="0.00" y1="28.00" x2="0.00" y2="19.00" stroke="#6c6c6c" stroke-width="1.00" stroke-linejoin="round" />
		<line x1="0.00" y1="19.00" x2="1035.00" y2="19.00" stroke="#6c6c6c" stroke-width="1.00" stroke-linejoin="round" />
		<line x1="1035.00" y1="19.00" x2="1035.00" y2="28.00" stroke="#6c6c6c" stroke-width="1.00" stroke-linejoin="round" />
		<line x1="0.00" y1="28.00" x2="1035.00" y2="28.00" stroke="#6c6c6c" stroke-width="1.00" stroke-linejoin="round" />
		<polygon fill="url('#gradient2')" shape-rendering="crispEdges" points="784.53,71.50 784.53,74.00 781.60,74.00 781.60,71.50 781.60,69.00 784.53,69.00 " />
		<polygon fill="url('#gradient2')" shape-rendering="crispEdges" points="295.88,71.50 295.88,74.00 294.31,74.00 294.31,71.50 294.31,69.00 295.88,69.00 " />
		<line x1="294.31" y1="69.00" x2="294.31" y2="74.00" stroke="#166e32" stroke-width="1.00" stroke-linejoin="round" />
		<line x1="294.31" y1="74.00" x2="295.88" y2="74.00" stroke="#166e32" stroke-width="1.00" stroke-linejoin="round" />
		<line x1="295.88" y1="74.00" x2="295.88" y2="69.00" stroke="#166e32" stroke-width="1.00" stroke-linejoin="round" />
		<line x1="294.31" y1="69.00" x2="295.88" y2="69.00" stroke="#166e32" stroke-width="1.00" stroke-linejoin="round" />
		<polygon fill="url('#gradient2')" shape-rendering="crispEdges" points="400.58,71.50 400.58,74.00 399.09,74.00 399.09,71.50 399.09,69.00 400.58,69.00 " />
		<line x1="399.09" y1="69.00" x2="399.09" y2="74.00" stroke="#166e32" stroke-width="1.00" stroke-linejoin="round" />
		<line x1="399.09" y1="74.00" x2="400.58" y2="74.00" stroke="#166e32" stroke-width="1.00" stroke-linejoin="round" />
		<line x1="400.58" y1="74.00" x2="400.58" y2="69.00" stroke="#166e32" stroke-width="1.00" stroke-linejoin="round" />
		<line x1="399.09" y1="69.00" x2="400.58" y2="69.00" stroke="#166e32" stroke-width="1.00" stroke-linejoin="round" />
		<line x1="251.13" y1="69.00" x2="251.13" y2="74.00" stroke="#166e32" stroke-width="1.00" />
		<line x1="36.69" y1="69.00" x2="36.69" y2="74.00" stroke="#166e32" stroke-width="1.00" />
		<line x1="471.65" y1="69.00" x2="471.65" y2="74.00" stroke="#166e32" stroke-width="1.00" />
		<line x1="226.59" y1="69.00" x2="226.59" y2="74.00" stroke="#166e32" stroke-width="1.00" />
		<line x1="115.41" y1="69.00" x2="115.41" y2="74.00" stroke="#166e32" stroke-width="1.00" />
		<line x1="686.81" y1="69.00" x2="686.81" y2="74.00" stroke="#166e32" stroke-width="1.00" />
		<line x1="826.95" y1="69.00" x2="826.95" y2="74.00" stroke="#166e32" stroke-width="1.00" />
		<line x1="982.99" y1="69.00" x2="982.99" y2="74.00" stroke="#166e32" stroke-width="1.00" />
		<line x1="995.18" y1="69.00" x2="995.18" y2="74.00" stroke="#166e32" stroke-width="1.00" />
		<line x1="694.65" y1="69.00" x2="694.65" y2="74.00" stroke="#166e32" stroke-width="1.00" />
		<line x1="983.79" y1="77.00" x2="983.79" y2="82.00" stroke="#166e32" stroke-width="1.00" />
		<line x1="822.19" y1="69.00" x2="822.19" y2="74.00" stroke="#166e32" stroke-width="1.00" />
		<line x1="659.45" y1="69.00" x2="659.45" y2="74.00" stroke="#166e32" stroke-width="1.00" />
		<line x1="567.74" y1="69.00" x2="567.74" y2="74.00" stroke="#166e32" stroke-width="1.00" />
		<line x1="243.18" y1="69.00" x2="243.18" y2="74.00" stroke="#166e32" stroke-width="1.00" />
		<line x1="763.36" y1="69.00" x2="763.36" y2="74.00" stroke="#166e32" stroke-width="1.00" />
		<line x1="109.88" y1="69.00" x2="109.88" y2="74.00" stroke="#166e32" stroke-width="1.00" />
		<line x1="931.37" y1="69.00" x2="931.37" y2="74.00" stroke="#166e32" stroke-width="1.00" />
		<line x1="318.59" y1="69.00" x2="318.59" y2="74.00" stroke="#166e32" stroke-width="1.00" />
		<line x1="517.79" y1="69.00" x2="517.79" y2="74.00" stroke="#166e32" stroke-width="1.00" />
		<line x1="578.78" y1="69.00" x2="578.78" y2="74.00" stroke="#166e32" stroke-width="1.00" />
		<line x1="976.01" y1="69.00" x2="976.01" y2="74.00" stroke="#166e32" stroke-width="1.00" />
		<line x1="352.71" y1="69.00" x2="352.71" y2="74.00" stroke="#166e32" stroke-width="1.00" />
		<line x1="280.42" y1="69.00" x2="280.42" y2="74.00" stroke="#166e32" stroke-width="1.00" />
		<line x1="194.24" y1="69.00" x2="194.24" y2="74.00" stroke="#166e32" stroke-width="1.00" />
		<line x1="563.25" y1="69.00" x2="563.25" y2="74.00" stroke="#166e32" stroke-width="1.00" />
		<line x1="855.52" y1="69.00" x2="855.52" y2="74.00" stroke="#166e32" stroke-width="1.00" />
		<line x1="53.95" y1="69.00" x2="53.95" y2="74.00" stroke="#166e32" stroke-width="1.00" />
		<line x1="619.43" y1="69.00" x2="619.43" y2="74.00" stroke="#166e32" stroke-width="1.00" />
		<line x1="848.65" y1="69.00" x2="848.65" y2="74.00" stroke="#166e32" stroke-width="1.00" />
		<line x1="609.42" y1="69.00" x2="609.42" y2="74.00" stroke="#166e32" stroke-width="1.00" />
		<line x1="193.05" y1="77.00" x2="193.05" y2="82.00" stroke="#166e32" stroke-width="1.00" />
		<line x1="790.09" y1="69.00" x2="790.09" y2="74.00" stroke="#166e32" stroke-width="1.00" />
		<line x1="942.60" y1="69.00" x2="942.60" y2="74.00" stroke="#166e32" stroke-width="1.00" />
		<line x1="369.90" y1="69.00" x2="369.90" y2="74.00" stroke="#166e32" stroke-opacity="0.80" stroke-width="1.00" />
		<line x1="245.54" y1="77.00" x2="245.54" y2="82.00" stroke="#166e32" stroke-width="1.00" />
		<line x1="887.87" y1="69.00" x2="887.87" y2="74.00" stroke="#166e32" stroke-width="1.00" />
		<line x1="624.95" y1="69.00" x2="624.95" y2="74.00" stroke="#166e32" stroke-width="1.00" />
		<line x1="105.79" y1="69.00" x2="105.79" y2="74.00" stroke="#166e32" stroke-opacity="0.80" stroke-width="1.00" />
		<line x1="791.12" y1="77.00" x2="791.12" y2="82.00" stroke="#166e32" stroke-width="1.00" />
		<line x1="804.67" y1="69.00" x2="804.67" y2="74.00" stroke="#166e32" stroke-width="1.00" />
		<line x1="766.21" y1="77.00" x2="766.21" y2="82.00" stroke="#166e32" stroke-width="1.00" />
		<line x1="367.78" y1="77.00" x2="367.78" y2="82.00" stroke="#166e32" stroke-width="1.00" />
		<line x1="58.73" y1="69.00" x2="58.73" y2="74.00" stroke="#166e32" stroke-width="1.00" />
		<line x1="263.51" y1="69.00" x2="263.51" y2="74.00" stroke="#166e32" stroke-width="1.00" />
		<line x1="179.54" y1="69.00" x2="179.54" y2="74.00" stroke="#166e32" stroke-width="1.00" />
		<line x1="140.78" y1="69.00" x2="140.78" y2="74.00" stroke="#166e32" stroke-width="1.00" />
		<line x1="367.21" y1="85.00" x2="367.21" y2="90.00" stroke="#166e32" stroke-width="1.00" />
		<line x1="814.85" y1="69.00" x2="814.85" y2="74.00" stroke="#166e32" stroke-width="1.00" />
		<line x1="464.89" y1="69.00" x2="464.89" y2="74.00" stroke="#166e32" stroke-width="1.00" />
		<line x1="1004.24" y1="69.00" x2="1004.24" y2="74.00" stroke="#166e32" stroke-width="1.00" />
		<line x1="580.78" y1="77.00" x2="580.78" y2="82.00" stroke="#166e32" stroke-width="1.00" />
		<line x1="770.36" y1="69.00" x2="770.36" y2="74.00" stroke="#166e32" stroke-width="1.00" />
		<line x1="809.06" y1="69.00" x2="809.06" y2="74.00" stroke="#166e32" stroke-width="1.00" />
		<line x1="882.32" y1="69.00" x2="882.32" y2="74.00" stroke="#166e32" stroke-width="1.00" />
		<line x1="193.71" y1="85.00" x2="193.71" y2="90.00" stroke="#166e32" stroke-width="1.00" />
		<line x1="512.91" y1="69.00" x2="512.91" y2="74.00" stroke="#166e32" stroke-width="1.00" />
		<line x1="174.16" y1="69.00" x2="174.16" y2="74.00" stroke="#166e32" stroke-width="1.00" />
		<line x1="178.60" y1="77.00" x2="178.60" y2="82.00" stroke="#166e32" stroke-width="1.00" />
		<line x1="924.69" y1="69.00" x2="924.69" y2="74.00" stroke="#166e32" stroke-width="1.00" />
		<line x1="321.77" y1="77.00" x2="321.77" y2="82.00" stroke="#166e32" stroke-width="1.00" />
		<line x1="635.48" y1="69.00" x2="635.48" y2="74.00" stroke="#166e32" stroke-width="1.00" />
		<line x1="145.65" y1="69.00" x2="145.65" y2="74.00" stroke="#166e32" stroke-width="1.00" />
		<line x1="964.24" y1="69.00" x2="964.24" y2="74.00" stroke="#166e32" stroke-width="1.00" />
		<line x1="889.51" y1="77.00" x2="889.51" y2="82.00" stroke="#166e32" stroke-width="1.00" />
		<line x1="22.40" y1="69.00" x2="22.40" y2="74.00" stroke="#166e32" stroke-width="1.00" />
		<line x1="737.56" y1="69.00" x2="737.56" y2="74.00" stroke="#166e32" stroke-width="1.00" />
		<line x1="1011.46" y1="69.00" x2="1011.46" y2="74.00" stroke="#166e32" stroke-width="1.00" />
		<line x1="585.41" y1="69.00" x2="585.41" y2="74.00" stroke="#166e32" stroke-width="1.00" />
		<line x1="847.71" y1="77.00" x2="847.71" y2="82.00" stroke="#166e32" stroke-width="1.00" />
		<line x1="201.36" y1="69.00" x2="201.36" y2="74.00" stroke="#166e32" stroke-width="1.00" />
		<line x1="663.64" y1="69.00" x2="663.64" y2="74.00" stroke="#166e32" stroke-width="1.00" />
		<line x1="66.49" y1="69.00" x2="66.49" y2="74.00" stroke="#166e32" stroke-width="1.00" />
		<line x1="308.33" y1="69.00" x2="308.33" y2="74.00" stroke="#166e32" stroke-width="1.00" />
		<line x1="84.40" y1="69.00" x2="84.40" y2="74.00" stroke="#166e32" stroke-width="1.00" />
		<line x1="873.48" y1="69.00" x2="873.48" y2="74.00" stroke="#166e32" stroke-width="1.00" />
		<line x1="927.18" y1="77.00" x2="927.18" y2="82.00" stroke="#166e32" stroke-width="1.00" />
		<line x1="744.14" y1="69.00" x2="744.14" y2="74.00" stroke="#166e32" stroke-width="1.00" />
		<line x1="520.48" y1="77.00" x2="520.48" y2="82.00" stroke="#166e32" stroke-width="1.00" />
		<line x1="547.25" y1="69.00" x2="547.25" y2="74.00" stroke="#166e32" stroke-width="1.00" />
		<line x1="123.43" y1="69.00" x2="123.43" y2="74.00" stroke="#166e32" stroke-width="1.00" />
		<line x1="322.47" y1="69.00" x2="322.47" y2="74.00" stroke="#166e32" stroke-width="1.00" />
		<line x1="859.22" y1="69.00" x2="859.22" y2="74.00" stroke="#166e32" stroke-width="1.00" />
		<line x1="870.77" y1="77.00" x2="870.77" y2="82.00" stroke="#166e32" stroke-width="1.00" />
		<line x1="238.17" y1="69.00" x2="238.17" y2="74.00" stroke="#166e32" stroke-width="1.00" />
		<line x1="990.17" y1="69.00" x2="990.17" y2="74.00" stroke="#166e32" stroke-width="1.00" />
		<line x1="564.33" y1="77.00" x2="564.33" y2="82.00" stroke="#166e32" stroke-width="1.00" />
		<line x1="912.88" y1="69.00" x2="912.88" y2="74.00" stroke="#166e32" stroke-width="1.00" />
		<line x1="436.51" y1="69.00" x2="436.51" y2="74.00" stroke="#166e32" stroke-width="1.00" />
		<line x1="218.97" y1="69.00" x2="218.97" y2="74.00" stroke="#166e32" stroke-width="1.00" />
		<line x1="319.48" y1="85.00" x2="319.48" y2="90.00" stroke="#166e32" stroke-width="1.00" />
		<line x1="52.81" y1="77.00" x2="52.81" y2="82.00" stroke="#166e32" stroke-width="1.00" />
		<line x1="684.52" y1="77.00" x2="684.52" y2="82.00" stroke="#166e32" stroke-width="1.00" />
		<line x1="771.73" y1="77.00" x2="771.73" y2="82.00" stroke="#166e32" stroke-width="1.00" />
		<line x1="682.92" y1="69.00" x2="682.92" y2="74.00" stroke="#166e32" stroke-opacity="0.80" stroke-width="1.00" />
		<line x1="546.36" y1="77.00" x2="546.36" y2="82.00" stroke="#166e32" stroke-width="1.00" />
		<line x1="869.20" y1="69.00" x2="869.20" y2="74.00" stroke="#166e32" stroke-width="1.00" />
		<line x1="327.17" y1="69.00" x2="327.17" y2="74.00" stroke="#166e32" stroke-width="1.00" />
		<line x1="752.84" y1="69.00" x2="752.84" y2="74.00" stroke="#166e32" stroke-width="1.00" />
		<line x1="49.21" y1="69.00" x2="49.21" y2="74.00" stroke="#166e32" stroke-opacity="0.80" stroke-width="1.00" />
		<line x1="236.03" y1="77.00" x2="236.03" y2="82.00" stroke="#166e32" stroke-width="1.00" />
		<line x1="211.96" y1="69.00" x2="211.96" y2="74.00" stroke="#166e32" stroke-width="1.00" />
		<line x1="90.05" y1="69.00" x2="90.05" y2="74.00" stroke="#166e32" stroke-width="1.00" />
		<line x1="662.59" y1="77.00" x2="662.59" y2="82.00" stroke="#166e32" stroke-width="1.00" />
		<line x1="1022.34" y1="69.00" x2="1022.34" y2="74.00" stroke="#166e32" stroke-width="1.00" />
		<line x1="93.99" y1="69.00" x2="93.99" y2="74.00" stroke="#166e32" stroke-width="1.00" />
		<line x1="630.72" y1="69.00" x2="630.72" y2="74.00" stroke="#166e32" stroke-width="1.00" />
		<line x1="863.05" y1="69.00" x2="863.05" y2="74.00" stroke="#166e32" stroke-width="1.00" />
		<line x1="830.01" y1="77.00" x2="830.01" y2="82.00" stroke="#166e32" stroke-width="1.00" />
		<line x1="128.20" y1="69.00" x2="128.20" y2="74.00" stroke="#166e32" stroke-width="1.00" />
		<line x1="786.16" y1="77.00" x2="786.16" y2="82.00" stroke="#166e32" stroke-width="1.00" />
		<line x1="992.19" y1="77.00" x2="992.19" y2="82.00" stroke="#166e32" stroke-width="1.00" />
		<line x1="277.34" y1="77.00" x2="277.34" y2="82.00" stroke="#166e32" stroke-width="1.00" />
		<line x1="355.69" y1="77.00" x2="355.69" y2="82.00" stroke="#166e32" stroke-opacity="0.80" stroke-width="1.00" />
		<line x1="324.86" y1="85.00" x2="324.86" y2="90.00" stroke="#166e32" stroke-width="1.00" />
		<line x1="894.50" y1="69.00" x2="894.50" y2="74.00" stroke="#166e32" stroke-width="1.00" />
		<line x1="81.70" y1="77.00" x2="81.70" y2="82.00" stroke="#166e32" stroke-width="1.00" />
		<line x1="693.50" y1="77.00" x2="693.50" y2="82.00" stroke="#166e32" stroke-width="1.00" />
		<line x1="842.10" y1="69.00" x2="842.10" y2="74.00" stroke="#166e32" stroke-width="1.00" />
		<line x1="938.93" y1="69.00" x2="938.93" y2="74.00" stroke="#166e32" stroke-width="1.00" />
		<line x1="857.06" y1="77.00" x2="857.06" y2="82.00" stroke="#166e32" stroke-width="1.00" />
		<line x1="994.05" y1="85.00" x2="994.05" y2="90.00" stroke="#166e32" stroke-width="1.00" />
		<line x1="709.84" y1="69.00" x2="709.84" y2="74.00" stroke="#166e32" stroke-opacity="0.80" stroke-width="1.00" />
		<line x1="429.62" y1="69.00" x2="429.62" y2="74.00" stroke="#166e32" stroke-width="1.00" />
		<line x1="863.56" y1="77.00" x2="863.56" y2="82.00" stroke="#166e32" stroke-width="1.00" />
		<line x1="484.82" y1="69.00" x2="484.82" y2="74.00" stroke="#166e32" stroke-width="1.00" />
		<line x1="656.55" y1="77.00" x2="656.55" y2="82.00" stroke="#166e32" stroke-width="1.00" />
		<line x1="969.50" y1="69.00" x2="969.50" y2="74.00" stroke="#166e32" stroke-width="1.00" />
		<line x1="9.90" y1="69.00" x2="9.90" y2="74.00" stroke="#166e32" stroke-width="1.00" />
		<line x1="485.28" y1="77.00" x2="485.28" y2="82.00" stroke="#166e32" stroke-width="1.00" />
		<line x1="778.84" y1="77.00" x2="778.84" y2="82.00" stroke="#166e32" stroke-width="1.00" />
		<line x1="85.02" y1="85.00" x2="85.02" y2="90.00" stroke="#166e32" stroke-width="1.00" />
		<line x1="867.89" y1="85.00" x2="867.89" y2="90.00" stroke="#166e32" stroke-width="1.00" />
		<line x1="583.71" y1="85.00" x2="583.71" y2="90.00" stroke="#166e32" stroke-opacity="0.80" stroke-width="1.00" />
		<line x1="459.44" y1="69.00" x2="459.44" y2="74.00" stroke="#166e32" stroke-width="1.00" />
		<line x1="461.46" y1="77.00" x2="461.46" y2="82.00" stroke="#166e32" stroke-width="1.00" />
		<line x1="585.94" y1="77.00" x2="585.94" y2="82.00" stroke="#166e32" stroke-width="1.00" />
		<line x1="53.30" y1="85.00" x2="53.30" y2="90.00" stroke="#166e32" stroke-width="1.00" />
		<line x1="795.43" y1="69.00" x2="795.43" y2="74.00" stroke="#166e32" stroke-width="1.00" />
		<line x1="883.46" y1="77.00" x2="883.46" y2="82.00" stroke="#166e32" stroke-width="1.00" />
		<line x1="139.76" y1="77.00" x2="139.76" y2="82.00" stroke="#166e32" stroke-width="1.00" />
		<line x1="881.85" y1="85.00" x2="881.85" y2="90.00" stroke="#166e32" stroke-width="1.00" />
		<line x1="610.16" y1="77.00" x2="610.16" y2="82.00" stroke="#166e32" stroke-width="1.00" />
		<line x1="707.45" y1="77.00" x2="707.45" y2="82.00" stroke="#166e32" stroke-width="1.00" />
		<line x1="116.56" y1="77.00" x2="116.56" y2="82.00" stroke="#166e32" stroke-width="1.00" />
		<line x1="47.86" y1="77.00" x2="47.86" y2="82.00" stroke="#166e32" stroke-width="1.00" />
		<line x1="86.82" y1="77.00" x2="86.82" y2="82.00" stroke="#166e32" stroke-width="1.00" />
		<line x1="87.38" y1="93.00" x2="87.38" y2="98.00" stroke="#166e32" stroke-width="1.00" />
		<line x1="26.41" y1="69.00" x2="26.41" y2="74.00" stroke="#166e32" stroke-width="1.00" />
		<line x1="476.23" y1="69.00" x2="476.23" y2="74.00" stroke="#166e32" stroke-width="1.00" />
		<line x1="252.05" y1="77.00" x2="252.05" y2="82.00" stroke="#166e32" stroke-width="1.00" />
		<line x1="566.27" y1="85.00" x2="566.27" y2="90.00" stroke="#166e32" stroke-width="1.00" />
		<line x1="182.59" y1="77.00" x2="182.59" y2="82.00" stroke="#166e32" stroke-width="1.00" />
		<line x1="340.78" y1="69.00" x2="340.78" y2="74.00" stroke="#166e32" stroke-width="1.00" />
		<line x1="991.43" y1="93.00" x2="991.43" y2="98.00" stroke="#166e32" stroke-width="1.00" />
		<line x1="133.93" y1="69.00" x2="133.93" y2="74.00" stroke="#166e32" stroke-width="1.00" />
		<line x1="902.60" y1="69.00" x2="902.60" y2="74.00" stroke="#166e32" stroke-width="1.00" />
		<line x1="318.03" y1="77.00" x2="318.03" y2="82.00" stroke="#166e32" stroke-width="1.00" />
		<line x1="691.88" y1="85.00" x2="691.88" y2="90.00" stroke="#166e32" stroke-width="1.00" />
		<line x1="713.73" y1="69.00" x2="713.73" y2="74.00" stroke="#166e32" stroke-width="1.00" />
		<line x1="265.81" y1="77.00" x2="265.81" y2="82.00" stroke="#166e32" stroke-width="1.00" />
		<line x1="351.78" y1="77.00" x2="351.78" y2="82.00" stroke="#166e32" stroke-opacity="0.80" stroke-width="1.00" />
		<line x1="587.61" y1="85.00" x2="587.61" y2="90.00" stroke="#166e32" stroke-width="1.00" />
		<line x1="696.84" y1="85.00" x2="696.84" y2="90.00" stroke="#166e32" stroke-width="1.00" />
		<line x1="556.42" y1="69.00" x2="556.42" y2="74.00" stroke="#166e32" stroke-width="1.00" />
		<line x1="951.57" y1="69.00" x2="951.57" y2="74.00" stroke="#166e32" stroke-width="1.00" />
		<line x1="689.45" y1="77.00" x2="689.45" y2="82.00" stroke="#166e32" stroke-opacity="0.80" stroke-width="1.00" />
		<line x1="456.05" y1="77.00" x2="456.05" y2="82.00" stroke="#166e32" stroke-width="1.00" />
		<line x1="727.95" y1="69.00" x2="727.95" y2="74.00" stroke="#166e32" stroke-width="1.00" />
		<line x1="1017.82" y1="69.00" x2="1017.82" y2="74.00" stroke="#166e32" stroke-width="1.00" />
		<line x1="151.77" y1="69.00" x2="151.77" y2="74.00" stroke="#166e32" stroke-width="1.00" />
		<line x1="216.10" y1="77.00" x2="216.10" y2="82.00" stroke="#166e32" stroke-width="1.00" />
		<line x1="191.93" y1="93.00" x2="191.93" y2="98.00" stroke="#166e32" stroke-width="1.00" />
		<line x1="862.59" y1="85.00" x2="862.59" y2="90.00" stroke="#166e32" stroke-width="1.00" />
		<line x1="665.72" y1="85.00" x2="665.72" y2="90.00" stroke="#166e32" stroke-width="1.00" />
		<line x1="372.03" y1="77.00" x2="372.03" y2="82.00" stroke="#166e32" stroke-width="1.00" />
		<line x1="190.51" y1="69.00" x2="190.51" y2="74.00" stroke="#166e32" stroke-width="1.00" />
		<line x1="305.21" y1="77.00" x2="305.21" y2="82.00" stroke="#166e32" stroke-width="1.00" />
		<line x1="124.33" y1="77.00" x2="124.33" y2="82.00" stroke="#166e32" stroke-width="1.00" />
		<line x1="640.43" y1="69.00" x2="640.43" y2="74.00" stroke="#166e32" stroke-width="1.00" />
		<line x1="437.50" y1="77.00" x2="437.50" y2="82.00" stroke="#166e32" stroke-width="1.00" />
		<line x1="596.14" y1="69.00" x2="596.14" y2="74.00" stroke="#166e32" stroke-width="1.00" />
		<line x1="1028.17" y1="69.00" x2="1028.17" y2="74.00" stroke="#166e32" stroke-width="1.00" />
		<line x1="265.20" y1="85.00" x2="265.20" y2="90.00" stroke="#166e32" stroke-width="1.00" />
		<line x1="167.44" y1="69.00" x2="167.44" y2="74.00" stroke="#166e32" stroke-width="1.00" />
		<line x1="961.72" y1="77.00" x2="961.72" y2="82.00" stroke="#166e32" stroke-width="1.00" />
		<line x1="549.33" y1="85.00" x2="549.33" y2="90.00" stroke="#166e32" stroke-width="1.00" />
		<line x1="681.05" y1="77.00" x2="681.05" y2="82.00" stroke="#166e32" stroke-width="1.00" />
		<line x1="1033.66" y1="69.00" x2="1033.66" y2="74.00" stroke="#166e32" stroke-width="1.00" />
		<line x1="799.36" y1="69.00" x2="799.36" y2="74.00" stroke="#166e32" stroke-width="1.00" />
		<line x1="156.88" y1="69.00" x2="156.88" y2="74.00" stroke="#166e32" stroke-width="1.00" />
		<line x1="433.81" y1="77.00" x2="433.81" y2="82.00" stroke="#166e32" stroke-width="1.00" />
		<line x1="776.67" y1="69.00" x2="776.67" y2="74.00" stroke="#166e32" stroke-width="1.00" />
		<line x1="77.58" y1="69.00" x2="77.58" y2="74.00" stroke="#166e32" stroke-width="1.00" />
		<line x1="340.42" y1="77.00" x2="340.42" y2="82.00" stroke="#166e32" stroke-width="1.00" />
		<line x1="279.68" y1="85.00" x2="279.68" y2="90.00" stroke="#166e32" stroke-width="1.00" />
		<line x1="37.14" y1="48.50" x2="37.14" y2="69.00" stroke="#7f7f7f" stroke-width="1.00" />
		<polygon fill="#7f7f7f" shape-rendering="crispEdges" points="38.64,48.50 38.63,48.31 38.59,48.13 38.53,47.95 38.45,47.78 38.35,47.62 38.23,47.47 38.10,47.34 37.94,47.23 37.78,47.14 37.60,47.07 37.42,47.03 37.23,47.00 37.04,47.00 36.86,47.03 36.68,47.07 36.50,47.14 36.34,47.23 36.18,47.34 36.05,47.47 35.93,47.62 35.82,47.78 35.74,47.95 35.69,48.13 35.65,48.31 35.64,48.50 35.65,48.69 35.69,48.87 35.74,49.05 35.82,49.22 35.93,49.38 36.05,49.53 36.18,49.66 36.34,49.77 36.50,49.86 36.68,49.93 36.86,49.97 37.04,50.00 37.23,50.00 37.42,49.97 37.60,49.93 37.78,49.86 37.94,49.77 38.10,49.66 38.23,49.53 38.35,49.38 38.45,49.22 38.53,49.05 38.59,48.87 38.63,48.69 38.64,48.50 " />
		<polygon fill="#7f7f7f" fill-opacity="0.30" shape-rendering="crispEdges" points="39.14,48.50 39.12,48.25 39.08,48.00 39.00,47.76 38.89,47.54 38.76,47.32 38.60,47.13 38.41,46.96 38.21,46.81 37.99,46.69 37.76,46.60 37.51,46.54 37.26,46.50 37.01,46.50 36.76,46.54 36.52,46.60 36.29,46.69 36.07,46.81 35.86,46.96 35.68,47.13 35.52,47.32 35.39,47.54 35.28,47.76 35.20,48.00 35.15,48.25 35.14,48.50 35.15,48.75 35.20,49.00 35.28,49.24 35.39,49.46 35.52,49.68 35.68,49.87 35.86,50.04 36.07,50.19 36.29,50.31 36.52,50.40 36.76,50.46 37.01,50.50 37.26,50.50 37.51,50.46 37.76,50.40 37.99,50.31 38.21,50.19 38.41,50.04 38.60,49.87 38.76,49.68 38.89,49.46 39.00,49.24 39.08,49.00 39.12,48.75 39.14,48.50 " />
		<polygon fill="#bfbfbf" shape-rendering="crispEdges" points="37.64,48.50 37.64,48.44 37.62,48.38 37.60,48.32 37.58,48.26 37.54,48.21 37.50,48.16 37.46,48.11 37.41,48.08 37.35,48.05 37.29,48.02 37.23,48.01 37.17,48.00 37.11,48.00 37.05,48.01 36.98,48.02 36.93,48.05 36.87,48.08 36.82,48.11 36.77,48.16 36.73,48.21 36.70,48.26 36.67,48.32 36.65,48.38 36.64,48.44 36.64,48.50 36.64,48.56 36.65,48.62 36.67,48.68 36.70,48.74 36.73,48.79 36.77,48.84 36.82,48.89 36.87,48.92 36.93,48.95 36.98,48.98 37.05,48.99 37.11,49.00 37.17,49.00 37.23,48.99 37.29,48.98 37.35,48.95 37.41,48.92 37.46,48.89 37.50,48.84 37.54,48.79 37.58,48.74 37.60,48.68 37.62,48.62 37.64,48.56 37.64,48.50 " />
		<polygon fill="#ffffff" shape-rendering="crispEdges" points="64.51,44.00 64.51,53.00 41.14,53.00 41.14,44.00 " />
		<text x="41.14" y="53.00" font-family="Helvetica" font-size="10" fill="#191919" >ehaG</text>
		<line x1="115.82" y1="48.50" x2="115.82" y2="69.00" stroke="#7f7f7f" stroke-width="1.00" />
		<polygon fill="#7f7f7f" shape-rendering="crispEdges" points="117.32,48.50 117.31,48.31 117.28,48.13 117.22,47.95 117.14,47.78 117.04,47.62 116.92,47.47 116.78,47.34 116.63,47.23 116.46,47.14 116.29,47.07 116.10,47.03 115.92,47.00 115.73,47.00 115.54,47.03 115.36,47.07 115.18,47.14 115.02,47.23 114.87,47.34 114.73,47.47 114.61,47.62 114.51,47.78 114.43,47.95 114.37,48.13 114.33,48.31 114.32,48.50 114.33,48.69 114.37,48.87 114.43,49.05 114.51,49.22 114.61,49.38 114.73,49.53 114.87,49.66 115.02,49.77 115.18,49.86 115.36,49.93 115.54,49.97 115.73,50.00 115.92,50.00 116.10,49.97 116.29,49.93 116.46,49.86 116.63,49.77 116.78,49.66 116.92,49.53 117.04,49.38 117.14,49.22 117.22,49.05 117.28,48.87 117.31,48.69 117.32,48.50 " />
		<polygon fill="#7f7f7f" fill-opacity="0.30" shape-rendering="crispEdges" points="117.82,48.50 117.81,48.25 117.76,48.00 117.68,47.76 117.58,47.54 117.44,47.32 117.28,47.13 117.10,46.96 116.89,46.81 116.67,46.69 116.44,46.60 116.20,46.54 115.95,46.50 115.70,46.50 115.45,46.54 115.20,46.60 114.97,46.69 114.75,46.81 114.55,46.96 114.37,47.13 114.20,47.32 114.07,47.54 113.96,47.76 113.89,48.00 113.84,48.25 113.82,48.50 113.84,48.75 113.89,49.00 113.96,49.24 114.07,49.46 114.20,49.68 114.37,49.87 114.55,50.04 114.75,50.19 114.97,50.31 115.20,50.40 115.45,50.46 115.70,50.50 115.95,50.50 116.20,50.46 116.44,50.40 116.67,50.31 116.89,50.19 117.10,50.04 117.28,49.87 117.44,49.68 117.58,49.46 117.68,49.24 117.76,49.00 117.81,48.75 117.82,48.50 " />
		<polygon fill="#bfbfbf" shape-rendering="crispEdges" points="116.32,48.50 116.32,48.44 116.31,48.38 116.29,48.32 116.26,48.26 116.23,48.21 116.19,48.16 116.14,48.11 116.09,48.08 116.04,48.05 115.98,48.02 115.92,48.01 115.85,48.00 115.79,48.00 115.73,48.01 115.67,48.02 115.61,48.05 115.56,48.08 115.50,48.11 115.46,48.16 115.42,48.21 115.38,48.26 115.36,48.32 115.34,48.38 115.33,48.44 115.32,48.50 115.33,48.56 115.34,48.62 115.36,48.68 115.38,48.74 115.42,48.79 115.46,48.84 115.50,48.89 115.56,48.92 115.61,48.95 115.67,48.98 115.73,48.99 115.79,49.00 115.85,49.00 115.92,48.99 115.98,48.98 116.04,48.95 116.09,48.92 116.14,48.89 116.19,48.84 116.23,48.79 116.26,48.74 116.29,48.68 116.31,48.62 116.32,48.56 116.32,48.50 " />
		<polygon fill="#ffffff" shape-rendering="crispEdges" points="136.34,44.00 136.34,53.00 119.82,53.00 119.82,44.00 " />
		<text x="119.82" y="53.00" font-family="Helvetica" font-size="10" fill="#191919" >gltB</text>
		<line x1="227.02" y1="48.50" x2="227.02" y2="69.00" stroke="#7f7f7f" stroke-width="1.00" />
		<polygon fill="#7f7f7f" shape-rendering="crispEdges" points="228.52,48.50 228.51,48.31 228.47,48.13 228.41,47.95 228.33,47.78 228.23,47.62 228.11,47.47 227.97,47.34 227.82,47.23 227.66,47.14 227.48,47.07 227.30,47.03 227.11,47.00 226.92,47.00 226.74,47.03 226.55,47.07 226.38,47.14 226.21,47.23 226.06,47.34 225.92,47.47 225.80,47.62 225.70,47.78 225.62,47.95 225.56,48.13 225.53,48.31 225.52,48.50 225.53,48.69 225.56,48.87 225.62,49.05 225.70,49.22 225.80,49.38 225.92,49.53 226.06,49.66 226.21,49.77 226.38,49.86 226.55,49.93 226.74,49.97 226.92,50.00 227.11,50.00 227.30,49.97 227.48,49.93 227.66,49.86 227.82,49.77 227.97,49.66 228.11,49.53 228.23,49.38 228.33,49.22 228.41,49.05 228.47,48.87 228.51,48.69 228.52,48.50 " />
		<polygon fill="#7f7f7f" fill-opacity="0.30" shape-rendering="crispEdges" points="229.02,48.50 229.00,48.25 228.95,48.00 228.88,47.76 228.77,47.54 228.64,47.32 228.48,47.13 228.29,46.96 228.09,46.81 227.87,46.69 227.64,46.60 227.39,46.54 227.14,46.50 226.89,46.50 226.64,46.54 226.40,46.60 226.17,46.69 225.95,46.81 225.74,46.96 225.56,47.13 225.40,47.32 225.26,47.54 225.16,47.76 225.08,48.00 225.03,48.25 225.02,48.50 225.03,48.75 225.08,49.00 225.16,49.24 225.26,49.46 225.40,49.68 225.56,49.87 225.74,50.04 225.95,50.19 226.17,50.31 226.40,50.40 226.64,50.46 226.89,50.50 227.14,50.50 227.39,50.46 227.64,50.40 227.87,50.31 228.09,50.19 228.29,50.04 228.48,49.87 228.64,49.68 228.77,49.46 228.88,49.24 228.95,49.00 229.00,48.75 229.02,48.50 " />
		<polygon fill="#bfbfbf" shape-rendering="crispEdges" points="227.52,48.50 227.51,48.44 227.50,48.38 227.48,48.32 227.46,48.26 227.42,48.21 227.38,48.16 227.34,48.11 227.29,48.08 227.23,48.05 227.17,48.02 227.11,48.01 227.05,48.00 226.99,48.00 226.92,48.01 226.86,48.02 226.80,48.05 226.75,48.08 226.70,48.11 226.65,48.16 226.61,48.21 226.58,48.26 226.55,48.32 226.53,48.38 226.52,48.44 226.52,48.50 226.52,48.56 226.53,48.62 226.55,48.68 226.58,48.74 226.61,48.79 226.65,48.84 226.70,48.89 226.75,48.92 226.80,48.95 226.86,48.98 226.92,48.99 226.99,49.00 227.05,49.00 227.11,48.99 227.17,48.98 227.23,48.95 227.29,48.92 227.34,48.89 227.38,48.84 227.42,48.79 227.46,48.74 227.48,48.68 227.50,48.62 227.51,48.56 227.52,48.50 " />
		<polygon fill="#ffffff" shape-rendering="crispEdges" points="250.13,44.00 250.13,53.00 231.02,53.00 231.02,44.00 " />
		<text x="231.02" y="53.00" font-family="Helvetica" font-size="10" fill="#191919" >ypjA</text>
		<line x1="472.08" y1="48.50" x2="472.08" y2="69.00" stroke="#7f7f7f" stroke-width="1.00" />
		<polygon fill="#7f7f7f" shape-rendering="crispEdges" points="473.58,48.50 473.57,48.31 473.54,48.13 473.48,47.95 473.40,47.78 473.30,47.62 473.18,47.47 473.04,47.34 472.89,47.23 472.72,47.14 472.55,47.07 472.36,47.03 472.18,47.00 471.99,47.00 471.80,47.03 471.62,47.07 471.44,47.14 471.28,47.23 471.13,47.34 470.99,47.47 470.87,47.62 470.77,47.78 470.69,47.95 470.63,48.13 470.59,48.31 470.58,48.50 470.59,48.69 470.63,48.87 470.69,49.05 470.77,49.22 470.87,49.38 470.99,49.53 471.13,49.66 471.28,49.77 471.44,49.86 471.62,49.93 471.80,49.97 471.99,50.00 472.18,50.00 472.36,49.97 472.55,49.93 472.72,49.86 472.89,49.77 473.04,49.66 473.18,49.53 473.30,49.38 473.40,49.22 473.48,49.05 473.54,48.87 473.57,48.69 473.58,48.50 " />
		<polygon fill="#7f7f7f" fill-opacity="0.30" shape-rendering="crispEdges" points="474.08,48.50 474.07,48.25 474.02,48.00 473.94,47.76 473.84,47.54 473.70,47.32 473.54,47.13 473.36,46.96 473.15,46.81 472.93,46.69 472.70,46.60 472.46,46.54 472.21,46.50 471.96,46.50 471.71,46.54 471.46,46.60 471.23,46.69 471.01,46.81 470.81,46.96 470.62,47.13 470.46,47.32 470.33,47.54 470.22,47.76 470.15,48.00 470.10,48.25 470.08,48.50 470.10,48.75 470.15,49.00 470.22,49.24 470.33,49.46 470.46,49.68 470.62,49.87 470.81,50.04 471.01,50.19 471.23,50.31 471.46,50.40 471.71,50.46 471.96,50.50 472.21,50.50 472.46,50.46 472.70,50.40 472.93,50.31 473.15,50.19 473.36,50.04 473.54,49.87 473.70,49.68 473.84,49.46 473.94,49.24 474.02,49.00 474.07,48.75 474.08,48.50 " />
		<polygon fill="#bfbfbf" shape-rendering="crispEdges" points="472.58,48.50 472.58,48.44 472.57,48.38 472.55,48.32 472.52,48.26 472.49,48.21 472.45,48.16 472.40,48.11 472.35,48.08 472.30,48.05 472.24,48.02 472.18,48.01 472.11,48.00 472.05,48.00 471.99,48.01 471.93,48.02 471.87,48.05 471.81,48.08 471.76,48.11 471.72,48.16 471.68,48.21 471.64,48.26 471.62,48.32 471.60,48.38 471.59,48.44 471.58,48.50 471.59,48.56 471.60,48.62 471.62,48.68 471.64,48.74 471.68,48.79 471.72,48.84 471.76,48.89 471.81,48.92 471.87,48.95 471.93,48.98 471.99,48.99 472.05,49.00 472.11,49.00 472.18,48.99 472.24,48.98 472.30,48.95 472.35,48.92 472.40,48.89 472.45,48.84 472.49,48.79 472.52,48.74 472.55,48.68 472.57,48.62 472.58,48.56 472.58,48.50 " />
		<polygon fill="#ffffff" shape-rendering="crispEdges" points="486.40,44.00 486.40,53.00 476.08,53.00 476.08,44.00 " />
		<text x="476.08" y="53.00" font-family="Helvetica" font-size="10" fill="#191919" >lhr</text>
		<line x1="619.75" y1="48.50" x2="619.75" y2="69.00" stroke="#7f7f7f" stroke-width="1.00" />
		<polygon fill="#7f7f7f" shape-rendering="crispEdges" points="621.25,48.50 621.24,48.31 621.21,48.13 621.15,47.95 621.07,47.78 620.97,47.62 620.85,47.47 620.71,47.34 620.56,47.23 620.39,47.14 620.22,47.07 620.03,47.03 619.85,47.00 619.66,47.00 619.47,47.03 619.29,47.07 619.11,47.14 618.95,47.23 618.80,47.34 618.66,47.47 618.54,47.62 618.44,47.78 618.36,47.95 618.30,48.13 618.27,48.31 618.25,48.50 618.27,48.69 618.30,48.87 618.36,49.05 618.44,49.22 618.54,49.38 618.66,49.53 618.80,49.66 618.95,49.77 619.11,49.86 619.29,49.93 619.47,49.97 619.66,50.00 619.85,50.00 620.03,49.97 620.22,49.93 620.39,49.86 620.56,49.77 620.71,49.66 620.85,49.53 620.97,49.38 621.07,49.22 621.15,49.05 621.21,48.87 621.24,48.69 621.25,48.50 " />
		<polygon fill="#7f7f7f" fill-opacity="0.30" shape-rendering="crispEdges" points="621.75,48.50 621.74,48.25 621.69,48.00 621.61,47.76 621.51,47.54 621.37,47.32 621.21,47.13 621.03,46.96 620.83,46.81 620.61,46.69 620.37,46.60 620.13,46.54 619.88,46.50 619.63,46.50 619.38,46.54 619.14,46.60 618.90,46.69 618.68,46.81 618.48,46.96 618.30,47.13 618.14,47.32 618.00,47.54 617.89,47.76 617.82,48.00 617.77,48.25 617.75,48.50 617.77,48.75 617.82,49.00 617.89,49.24 618.00,49.46 618.14,49.68 618.30,49.87 618.48,50.04 618.68,50.19 618.90,50.31 619.14,50.40 619.38,50.46 619.63,50.50 619.88,50.50 620.13,50.46 620.37,50.40 620.61,50.31 620.83,50.19 621.03,50.04 621.21,49.87 621.37,49.68 621.51,49.46 621.61,49.24 621.69,49.00 621.74,48.75 621.75,48.50 " />
		<polygon fill="#bfbfbf" shape-rendering="crispEdges" points="620.25,48.50 620.25,48.44 620.24,48.38 620.22,48.32 620.19,48.26 620.16,48.21 620.12,48.16 620.07,48.11 620.02,48.08 619.97,48.05 619.91,48.02 619.85,48.01 619.79,48.00 619.72,48.00 619.66,48.01 619.60,48.02 619.54,48.05 619.49,48.08 619.43,48.11 619.39,48.16 619.35,48.21 619.32,48.26 619.29,48.32 619.27,48.38 619.26,48.44 619.25,48.50 619.26,48.56 619.27,48.62 619.29,48.68 619.32,48.74 619.35,48.79 619.39,48.84 619.43,48.89 619.49,48.92 619.54,48.95 619.60,48.98 619.66,48.99 619.72,49.00 619.79,49.00 619.85,48.99 619.91,48.98 619.97,48.95 620.02,48.92 620.07,48.89 620.12,48.84 620.16,48.79 620.19,48.74 620.22,48.68 620.24,48.62 620.25,48.56 620.25,48.50 " />
		<polygon fill="#ffffff" shape-rendering="crispEdges" points="639.11,44.00 639.11,53.00 623.75,53.00 623.75,44.00 " />
		<text x="623.75" y="53.00" font-family="Helvetica" font-size="10" fill="#191919" >mfd</text>
		<line x1="687.22" y1="48.50" x2="687.22" y2="69.00" stroke="#7f7f7f" stroke-width="1.00" />
		<polygon fill="#7f7f7f" shape-rendering="crispEdges" points="688.72,48.50 688.71,48.31 688.68,48.13 688.62,47.95 688.54,47.78 688.44,47.62 688.32,47.47 688.18,47.34 688.03,47.23 687.86,47.14 687.69,47.07 687.50,47.03 687.32,47.00 687.13,47.00 686.94,47.03 686.76,47.07 686.58,47.14 686.42,47.23 686.27,47.34 686.13,47.47 686.01,47.62 685.91,47.78 685.83,47.95 685.77,48.13 685.73,48.31 685.72,48.50 685.73,48.69 685.77,48.87 685.83,49.05 685.91,49.22 686.01,49.38 686.13,49.53 686.27,49.66 686.42,49.77 686.58,49.86 686.76,49.93 686.94,49.97 687.13,50.00 687.32,50.00 687.50,49.97 687.69,49.93 687.86,49.86 688.03,49.77 688.18,49.66 688.32,49.53 688.44,49.38 688.54,49.22 688.62,49.05 688.68,48.87 688.71,48.69 688.72,48.50 " />
		<polygon fill="#7f7f7f" fill-opacity="0.30" shape-rendering="crispEdges" points="689.22,48.50 689.21,48.25 689.16,48.00 689.08,47.76 688.98,47.54 688.84,47.32 688.68,47.13 688.50,46.96 688.29,46.81 688.07,46.69 687.84,46.60 687.60,46.54 687.35,46.50 687.10,46.50 686.85,46.54 686.60,46.60 686.37,46.69 686.15,46.81 685.95,46.96 685.76,47.13 685.60,47.32 685.47,47.54 685.36,47.76 685.29,48.00 685.24,48.25 685.22,48.50 685.24,48.75 685.29,49.00 685.36,49.24 685.47,49.46 685.60,49.68 685.76,49.87 685.95,50.04 686.15,50.19 686.37,50.31 686.60,50.40 686.85,50.46 687.10,50.50 687.35,50.50 687.60,50.46 687.84,50.40 688.07,50.31 688.29,50.19 688.50,50.04 688.68,49.87 688.84,49.68 688.98,49.46 689.08,49.24 689.16,49.00 689.21,48.75 689.22,48.50 " />
		<polygon fill="#bfbfbf" shape-rendering="crispEdges" points="687.72,48.50 687.72,48.44 687.71,48.38 687.69,48.32 687.66,48.26 687.63,48.21 687.59,48.16 687.54,48.11 687.49,48.08 687.44,48.05 687.38,48.02 687.32,48.01 687.25,48.00 687.19,48.00 687.13,48.01 687.07,48.02 687.01,48.05 686.95,48.08 686.90,48.11 686.86,48.16 686.82,48.21 686.78,48.26 686.76,48.32 686.74,48.38 686.73,48.44 686.72,48.50 686.73,48.56 686.74,48.62 686.76,48.68 686.78,48.74 686.82,48.79 686.86,48.84 686.90,48.89 686.95,48.92 687.01,48.95 687.07,48.98 687.13,48.99 687.19,49.00 687.25,49.00 687.32,48.99 687.38,48.98 687.44,48.95 687.49,48.92 687.54,48.89 687.59,48.84 687.63,48.79 687.66,48.74 687.69,48.68 687.71,48.62 687.72,48.56 687.72,48.50 " />
		<polygon fill="#ffffff" shape-rendering="crispEdges" points="715.64,44.00 715.64,53.00 691.22,53.00 691.22,44.00 " />
		<text x="691.22" y="53.00" font-family="Helvetica" font-size="10" fill="#191919" >mukB</text>
		<line x1="783.07" y1="48.50" x2="783.07" y2="69.00" stroke="#7f7f7f" stroke-width="1.00" />
		<polygon fill="#7f7f7f" shape-rendering="crispEdges" points="784.57,48.50 784.56,48.31 784.52,48.13 784.46,47.95 784.38,47.78 784.28,47.62 784.16,47.47 784.02,47.34 783.87,47.23 783.71,47.14 783.53,47.07 783.35,47.03 783.16,47.00 782.97,47.00 782.79,47.03 782.60,47.07 782.43,47.14 782.26,47.23 782.11,47.34 781.97,47.47 781.85,47.62 781.75,47.78 781.67,47.95 781.61,48.13 781.58,48.31 781.57,48.50 781.58,48.69 781.61,48.87 781.67,49.05 781.75,49.22 781.85,49.38 781.97,49.53 782.11,49.66 782.26,49.77 782.43,49.86 782.60,49.93 782.79,49.97 782.97,50.00 783.16,50.00 783.35,49.97 783.53,49.93 783.71,49.86 783.87,49.77 784.02,49.66 784.16,49.53 784.28,49.38 784.38,49.22 784.46,49.05 784.52,48.87 784.56,48.69 784.57,48.50 " />
		<polygon fill="#7f7f7f" fill-opacity="0.30" shape-rendering="crispEdges" points="785.07,48.50 785.05,48.25 785.00,48.00 784.93,47.76 784.82,47.54 784.69,47.32 784.53,47.13 784.34,46.96 784.14,46.81 783.92,46.69 783.69,46.60 783.44,46.54 783.19,46.50 782.94,46.50 782.69,46.54 782.45,46.60 782.22,46.69 782.00,46.81 781.79,46.96 781.61,47.13 781.45,47.32 781.31,47.54 781.21,47.76 781.13,48.00 781.08,48.25 781.07,48.50 781.08,48.75 781.13,49.00 781.21,49.24 781.31,49.46 781.45,49.68 781.61,49.87 781.79,50.04 782.00,50.19 782.22,50.31 782.45,50.40 782.69,50.46 782.94,50.50 783.19,50.50 783.44,50.46 783.69,50.40 783.92,50.31 784.14,50.19 784.34,50.04 784.53,49.87 784.69,49.68 784.82,49.46 784.93,49.24 785.00,49.00 785.05,48.75 785.07,48.50 " />
		<polygon fill="#bfbfbf" shape-rendering="crispEdges" points="783.57,48.50 783.56,48.44 783.55,48.38 783.53,48.32 783.51,48.26 783.47,48.21 783.43,48.16 783.39,48.11 783.34,48.08 783.28,48.05 783.22,48.02 783.16,48.01 783.10,48.00 783.04,48.00 782.97,48.01 782.91,48.02 782.85,48.05 782.80,48.08 782.75,48.11 782.70,48.16 782.66,48.21 782.63,48.26 782.60,48.32 782.58,48.38 782.57,48.44 782.57,48.50 782.57,48.56 782.58,48.62 782.60,48.68 782.63,48.74 782.66,48.79 782.70,48.84 782.75,48.89 782.80,48.92 782.85,48.95 782.91,48.98 782.97,48.99 783.04,49.00 783.10,49.00 783.16,48.99 783.22,48.98 783.28,48.95 783.34,48.92 783.39,48.89 783.43,48.84 783.47,48.79 783.51,48.74 783.53,48.68 783.55,48.62 783.56,48.56 783.57,48.50 " />
		<polygon fill="#ffffff" shape-rendering="crispEdges" points="863.02,44.00 863.02,53.00 787.07,53.00 787.07,44.00 " />
		<text x="787.07" y="53.00" font-family="Helvetica" font-size="10" fill="#191919" >D8Z70_RS22045</text>
		<line x1="251.59" y1="59.50" x2="251.59" y2="69.00" stroke="#7f7f7f" stroke-width="1.00" />
		<polygon fill="#7f7f7f" shape-rendering="crispEdges" points="253.09,59.50 253.08,59.31 253.05,59.13 252.99,58.95 252.91,58.78 252.81,58.62 252.69,58.47 252.55,58.34 252.40,58.23 252.23,58.14 252.06,58.07 251.87,58.03 251.69,58.00 251.50,58.00 251.31,58.03 251.13,58.07 250.95,58.14 250.79,58.23 250.64,58.34 250.50,58.47 250.38,58.62 250.28,58.78 250.20,58.95 250.14,59.13 250.10,59.31 250.09,59.50 250.10,59.69 250.14,59.87 250.20,60.05 250.28,60.22 250.38,60.38 250.50,60.53 250.64,60.66 250.79,60.77 250.95,60.86 251.13,60.93 251.31,60.97 251.50,61.00 251.69,61.00 251.87,60.97 252.06,60.93 252.23,60.86 252.40,60.77 252.55,60.66 252.69,60.53 252.81,60.38 252.91,60.22 252.99,60.05 253.05,59.87 253.08,59.69 253.09,59.50 " />
		<polygon fill="#7f7f7f" fill-opacity="0.30" shape-rendering="crispEdges" points="253.59,59.50 253.58,59.25 253.53,59.00 253.45,58.76 253.35,58.54 253.21,58.32 253.05,58.13 252.87,57.96 252.66,57.81 252.44,57.69 252.21,57.60 251.97,57.54 251.72,57.50 251.47,57.50 251.22,57.54 250.97,57.60 250.74,57.69 250.52,57.81 250.32,57.96 250.13,58.13 249.97,58.32 249.84,58.54 249.73,58.76 249.66,59.00 249.61,59.25 249.59,59.50 249.61,59.75 249.66,60.00 249.73,60.24 249.84,60.46 249.97,60.68 250.13,60.87 250.32,61.04 250.52,61.19 250.74,61.31 250.97,61.40 251.22,61.46 251.47,61.50 251.72,61.50 251.97,61.46 252.21,61.40 252.44,61.31 252.66,61.19 252.87,61.04 253.05,60.87 253.21,60.68 253.35,60.46 253.45,60.24 253.53,60.00 253.58,59.75 253.59,59.50 " />
		<polygon fill="#bfbfbf" shape-rendering="crispEdges" points="252.09,59.50 252.09,59.44 252.08,59.38 252.06,59.32 252.03,59.26 252.00,59.21 251.96,59.16 251.91,59.11 251.86,59.08 251.81,59.05 251.75,59.02 251.69,59.01 251.62,59.00 251.56,59.00 251.50,59.01 251.44,59.02 251.38,59.05 251.32,59.08 251.27,59.11 251.23,59.16 251.19,59.21 251.15,59.26 251.13,59.32 251.11,59.38 251.10,59.44 251.09,59.50 251.10,59.56 251.11,59.62 251.13,59.68 251.15,59.74 251.19,59.79 251.23,59.84 251.27,59.89 251.32,59.92 251.38,59.95 251.44,59.98 251.50,59.99 251.56,60.00 251.62,60.00 251.69,59.99 251.75,59.98 251.81,59.95 251.86,59.92 251.91,59.89 251.96,59.84 252.00,59.79 252.03,59.74 252.06,59.68 252.08,59.62 252.09,59.56 252.09,59.50 " />
		<polygon fill="#ffffff" shape-rendering="crispEdges" points="276.34,55.00 276.34,64.00 255.59,64.00 255.59,55.00 " />
		<text x="255.59" y="64.00" font-family="Helvetica" font-size="10" fill="#191919" >yfhM</text>
		<line x1="625.25" y1="59.50" x2="625.25" y2="69.00" stroke="#7f7f7f" stroke-width="1.00" />
		<polygon fill="#7f7f7f" shape-rendering="crispEdges" points="626.75,59.50 626.74,59.31 626.70,59.13 626.65,58.95 626.57,58.78 626.46,58.62 626.34,58.47 626.21,58.34 626.05,58.23 625.89,58.14 625.71,58.07 625.53,58.03 625.35,58.00 625.16,58.00 624.97,58.03 624.79,58.07 624.61,58.14 624.45,58.23 624.29,58.34 624.16,58.47 624.04,58.62 623.94,58.78 623.86,58.95 623.80,59.13 623.76,59.31 623.75,59.50 623.76,59.69 623.80,59.87 623.86,60.05 623.94,60.22 624.04,60.38 624.16,60.53 624.29,60.66 624.45,60.77 624.61,60.86 624.79,60.93 624.97,60.97 625.16,61.00 625.35,61.00 625.53,60.97 625.71,60.93 625.89,60.86 626.05,60.77 626.21,60.66 626.34,60.53 626.46,60.38 626.57,60.22 626.65,60.05 626.70,59.87 626.74,59.69 626.75,59.50 " />
		<polygon fill="#7f7f7f" fill-opacity="0.30" shape-rendering="crispEdges" points="627.25,59.50 627.24,59.25 627.19,59.00 627.11,58.76 627.00,58.54 626.87,58.32 626.71,58.13 626.53,57.96 626.32,57.81 626.10,57.69 625.87,57.60 625.63,57.54 625.38,57.50 625.13,57.50 624.88,57.54 624.63,57.60 624.40,57.69 624.18,57.81 623.98,57.96 623.79,58.13 623.63,58.32 623.50,58.54 623.39,58.76 623.31,59.00 623.27,59.25 623.25,59.50 623.27,59.75 623.31,60.00 623.39,60.24 623.50,60.46 623.63,60.68 623.79,60.87 623.98,61.04 624.18,61.19 624.40,61.31 624.63,61.40 624.88,61.46 625.13,61.50 625.38,61.50 625.63,61.46 625.87,61.40 626.10,61.31 626.32,61.19 626.53,61.04 626.71,60.87 626.87,60.68 627.00,60.46 627.11,60.24 627.19,60.00 627.24,59.75 627.25,59.50 " />
		<polygon fill="#bfbfbf" shape-rendering="crispEdges" points="625.75,59.50 625.75,59.44 625.74,59.38 625.72,59.32 625.69,59.26 625.66,59.21 625.62,59.16 625.57,59.11 625.52,59.08 625.46,59.05 625.41,59.02 625.34,59.01 625.28,59.00 625.22,59.00 625.16,59.01 625.10,59.02 625.04,59.05 624.98,59.08 624.93,59.11 624.89,59.16 624.85,59.21 624.81,59.26 624.79,59.32 624.77,59.38 624.76,59.44 624.75,59.50 624.76,59.56 624.77,59.62 624.79,59.68 624.81,59.74 624.85,59.79 624.89,59.84 624.93,59.89 624.98,59.92 625.04,59.95 625.10,59.98 625.16,59.99 625.22,60.00 625.28,60.00 625.34,59.99 625.41,59.98 625.46,59.95 625.52,59.92 625.57,59.89 625.62,59.84 625.66,59.79 625.69,59.74 625.72,59.68 625.74,59.62 625.75,59.56 625.75,59.50 " />
		<polygon fill="#ffffff" shape-rendering="crispEdges" points="642.58,55.00 642.58,64.00 629.25,64.00 629.25,55.00 " />
		<text x="629.25" y="64.00" font-family="Helvetica" font-size="10" fill="#191919" >rne</text>
		<line x1="827.34" y1="59.50" x2="827.34" y2="69.00" stroke="#7f7f7f" stroke-width="1.00" />
		<polygon fill="#7f7f7f" shape-rendering="crispEdges" points="828.84,59.50 828.83,59.31 828.80,59.13 828.74,58.95 828.66,58.78 828.56,58.62 828.44,58.47 828.30,58.34 828.15,58.23 827.98,58.14 827.81,58.07 827.63,58.03 827.44,58.00 827.25,58.00 827.06,58.03 826.88,58.07 826.71,58.14 826.54,58.23 826.39,58.34 826.25,58.47 826.13,58.62 826.03,58.78 825.95,58.95 825.89,59.13 825.86,59.31 825.84,59.50 825.86,59.69 825.89,59.87 825.95,60.05 826.03,60.22 826.13,60.38 826.25,60.53 826.39,60.66 826.54,60.77 826.71,60.86 826.88,60.93 827.06,60.97 827.25,61.00 827.44,61.00 827.63,60.97 827.81,60.93 827.98,60.86 828.15,60.77 828.30,60.66 828.44,60.53 828.56,60.38 828.66,60.22 828.74,60.05 828.80,59.87 828.83,59.69 828.84,59.50 " />
		<polygon fill="#7f7f7f" fill-opacity="0.30" shape-rendering="crispEdges" points="829.34,59.50 829.33,59.25 829.28,59.00 829.20,58.76 829.10,58.54 828.96,58.32 828.80,58.13 828.62,57.96 828.42,57.81 828.20,57.69 827.96,57.60 827.72,57.54 827.47,57.50 827.22,57.50 826.97,57.54 826.73,57.60 826.49,57.69 826.27,57.81 826.07,57.96 825.89,58.13 825.73,58.32 825.59,58.54 825.49,58.76 825.41,59.00 825.36,59.25 825.34,59.50 825.36,59.75 825.41,60.00 825.49,60.24 825.59,60.46 825.73,60.68 825.89,60.87 826.07,61.04 826.27,61.19 826.49,61.31 826.73,61.40 826.97,61.46 827.22,61.50 827.47,61.50 827.72,61.46 827.96,61.40 828.20,61.31 828.42,61.19 828.62,61.04 828.80,60.87 828.96,60.68 829.10,60.46 829.20,60.24 829.28,60.00 829.33,59.75 829.34,59.50 " />
		<polygon fill="#bfbfbf" shape-rendering="crispEdges" points="827.84,59.50 827.84,59.44 827.83,59.38 827.81,59.32 827.78,59.26 827.75,59.21 827.71,59.16 827.66,59.11 827.61,59.08 827.56,59.05 827.50,59.02 827.44,59.01 827.38,59.00 827.31,59.00 827.25,59.01 827.19,59.02 827.13,59.05 827.08,59.08 827.03,59.11 826.98,59.16 826.94,59.21 826.91,59.26 826.88,59.32 826.86,59.38 826.85,59.44 826.84,59.50 826.85,59.56 826.86,59.62 826.88,59.68 826.91,59.74 826.94,59.79 826.98,59.84 827.03,59.89 827.08,59.92 827.13,59.95 827.19,59.98 827.25,59.99 827.31,60.00 827.38,60.00 827.44,59.99 827.50,59.98 827.56,59.95 827.61,59.92 827.66,59.89 827.71,59.84 827.75,59.79 827.78,59.74 827.81,59.68 827.83,59.62 827.84,59.56 827.84,59.50 " />
		<polygon fill="#ffffff" shape-rendering="crispEdges" points="851.83,55.00 851.83,64.00 831.34,64.00 831.34,55.00 " />
		<text x="831.34" y="64.00" font-family="Helvetica" font-size="10" fill="#191919" >fdeC</text>
		<polygon fill="url('#gradient3')" shape-rendering="crispEdges" points="0.00,44.00 1035.00,44.00 1035.00,30.00 0.00,30.00 " clip-path="url('#clipping-rect2')" />
		<text x="0.00" y="40.00" font-family="Helvetica" font-size="12" fill="#333333" >Genes</text>
		<line x1="209.15" y1="117.00" x2="209.15" y2="127.00" stroke="#0000ff" stroke-width="1.00" />
		<text x="180.19" y="125.50" font-family="Helvetica" font-size="10" fill="#124d94" >direct</text>
		<polygon fill="url('#gradient3')" shape-rendering="crispEdges" points="0.00,114.00 1035.00,114.00 1035.00,100.00 0.00,100.00 " clip-path="url('#clipping-rect2')" />
		<text x="0.00" y="110.00" font-family="Helvetica" font-size="12" fill="#333333" >Repeat region</text>
	</g>
</svg>
